<?xml version="1.0" standalone="no"?>
<!DOCTYPE svg PUBLIC "-//W3C//DTD SVG 20010904//EN"
 "http://www.w3.org/TR/2001/REC-SVG-20010904/DTD/svg10.dtd">
<svg version="1.0" xmlns="http://www.w3.org/2000/svg"
 width="916.000000pt" height="916.000000pt" viewBox="0 0 916.000000 916.000000"
 preserveAspectRatio="xMidYMid meet">
<metadata>
Created by potrace 1.14, written by Peter Selinger 2001-2017
</metadata>
<g transform="translate(0.000000,916.000000) scale(0.100000,-0.100000)"
fill="#000000" stroke="none">
<path d="M8384 8998 c-92 -90 -207 -201 -254 -248 -48 -47 -198 -193 -335
-325 -136 -132 -286 -277 -333 -322 -46 -46 -85 -83 -86 -83 -1 0 -72 -69
-158 -152 -87 -84 -246 -238 -354 -343 -326 -315 -747 -722 -884 -855 -48 -47
-181 -175 -295 -285 -114 -110 -262 -253 -329 -318 -322 -313 -469 -452 -483
-455 -8 -2 -25 8 -37 23 -11 15 -70 77 -131 140 -60 62 -120 124 -132 138 -11
14 -27 29 -35 33 -7 5 -35 33 -61 62 l-48 52 103 101 c156 151 267 254 275
254 7 0 88 45 153 86 8 5 33 18 55 30 22 12 42 24 45 28 3 3 28 19 57 34 197
105 229 130 449 343 118 115 220 211 225 212 21 8 4 33 -78 119 -49 49 -180
186 -293 302 -113 117 -223 230 -244 252 l-40 40 -50 -50 c-28 -27 -98 -95
-156 -151 -58 -56 -136 -131 -174 -168 -66 -65 -156 -184 -156 -209 0 -6 -4
-13 -9 -15 -5 -1 -17 -17 -27 -35 -50 -86 -129 -208 -136 -211 -4 -2 -8 -8 -8
-14 0 -6 -18 -37 -40 -70 -22 -33 -40 -63 -40 -67 0 -4 -70 -74 -156 -156 -86
-83 -166 -160 -177 -172 -13 -15 -24 -20 -32 -13 -14 12 -239 -205 -229 -221
6 -10 -41 -58 -355 -362 -58 -56 -97 -87 -106 -83 -19 7 -238 -206 -233 -227
2 -9 -28 -44 -67 -82 -38 -37 -117 -113 -175 -170 -103 -100 -191 -159 -450
-303 -25 -14 -78 -44 -117 -68 -40 -24 -76 -44 -80 -44 -13 0 -55 -39 -262
-238 -229 -221 -232 -224 -229 -233 3 -7 188 -199 536 -556 56 -58 102 -110
102 -114 0 -30 51 7 170 122 299 289 317 308 361 381 24 40 49 79 56 86 7 7
13 19 13 26 0 7 9 21 20 31 11 10 17 21 15 25 -3 5 -2 10 3 12 10 4 92 135 92
147 0 5 4 11 8 13 4 2 25 32 47 68 36 60 87 115 338 358 l74 72 39 -40 c22
-22 112 -115 202 -207 89 -92 162 -169 162 -171 0 -2 10 -12 23 -22 l22 -18
-97 -94 c-178 -172 -499 -482 -616 -596 -65 -63 -160 -155 -213 -205 -52 -51
-98 -97 -102 -103 -4 -7 6 -41 22 -75 40 -89 49 -115 55 -149 1 -9 5 -20 8
-25 6 -12 2 -179 -6 -214 -10 -44 -40 -116 -65 -156 -13 -22 -24 -42 -24 -45
1 -3 -30 -35 -68 -71 -140 -136 -327 -188 -514 -145 -11 2 -21 5 -22 6 -3 3
-3 3 -48 15 -16 4 -37 14 -46 22 -9 7 -26 15 -37 18 -11 2 -32 11 -45 20 -20
13 -27 14 -38 3 -8 -7 -57 -49 -109 -93 -52 -43 -102 -86 -111 -94 -9 -9 -29
-27 -45 -40 -87 -73 -153 -130 -190 -161 -44 -38 -52 -45 -199 -169 -55 -47
-104 -89 -110 -95 -5 -6 -50 -45 -100 -86 -49 -41 -95 -79 -101 -85 -6 -5 -32
-28 -59 -50 -26 -22 -53 -44 -59 -50 -6 -5 -40 -35 -76 -65 -36 -30 -72 -61
-81 -70 -8 -8 -35 -31 -59 -50 -24 -19 -55 -45 -69 -58 -14 -12 -35 -30 -46
-40 -11 -10 -42 -36 -70 -57 -27 -22 -54 -45 -60 -51 -5 -6 -55 -48 -110 -95
-55 -46 -105 -88 -111 -94 -6 -5 -32 -28 -59 -50 -26 -22 -63 -53 -82 -70
l-34 -30 77 -80 c42 -44 144 -150 228 -236 83 -86 252 -261 376 -389 124 -128
298 -307 386 -398 l162 -166 28 34 c16 19 38 44 49 56 27 29 177 194 190 208
6 7 35 39 65 72 30 33 91 100 135 149 44 48 99 108 122 133 24 24 43 45 43 47
0 4 45 53 150 164 30 32 84 91 120 131 36 41 80 89 98 108 17 18 32 35 32 36
0 3 136 151 188 204 17 19 32 36 32 38 0 3 15 20 32 38 18 18 74 77 123 131
50 55 99 109 111 122 12 12 48 52 80 89 62 69 240 250 316 320 39 36 64 48
218 98 161 52 178 60 216 99 23 23 98 97 168 164 l126 123 -107 111 c-60 61
-144 148 -189 194 -44 46 -89 100 -99 121 -20 42 -30 151 -16 168 5 6 9 13 9
16 -4 31 79 140 107 140 6 0 42 -29 80 -65 39 -36 73 -65 77 -65 4 0 13 -6 20
-13 27 -26 228 -116 228 -102 0 2 21 -2 48 -9 63 -17 210 -13 304 8 62 14 83
24 112 53 50 50 63 123 33 183 -22 45 -80 88 -115 85 -12 -1 -22 2 -22 7 0 5
-4 6 -10 3 -5 -3 -20 -8 -32 -11 -153 -33 -248 -22 -353 41 -44 27 -100 73
-94 79 2 1 33 22 69 46 36 24 67 47 68 52 2 4 10 8 18 8 8 0 14 3 14 8 0 4 15
16 33 25 43 23 58 38 192 182 61 65 133 141 160 170 28 29 95 101 150 161 55
59 118 126 140 149 22 23 85 90 140 149 55 59 126 135 158 169 32 34 91 97
130 140 40 43 101 109 137 146 36 38 108 114 160 171 52 56 113 121 135 144
22 24 90 96 150 160 61 65 128 137 150 160 45 48 241 258 296 317 42 45 38 48
96 -61 47 -88 89 -163 113 -205 10 -16 33 -59 52 -95 20 -36 47 -86 62 -112
14 -27 38 -69 52 -95 15 -27 46 -83 70 -125 23 -43 40 -78 36 -78 -4 0 -2 -4
4 -8 9 -6 31 -45 127 -222 16 -30 33 -59 37 -65 4 -5 29 -50 55 -100 26 -49
63 -116 81 -148 19 -32 34 -62 34 -68 0 -5 5 -9 12 -9 6 0 8 -3 5 -6 -4 -4 1
-19 11 -33 10 -14 24 -38 31 -53 l14 -28 91 48 c50 26 93 50 96 53 3 4 24 16
48 28 23 12 42 24 42 28 0 3 -28 56 -61 117 -34 61 -74 134 -89 161 -15 28
-53 96 -84 152 -31 56 -56 106 -56 112 0 6 -4 11 -10 11 -5 0 -10 4 -10 9 0 5
-27 57 -60 116 -33 59 -60 111 -60 115 0 4 -7 13 -15 20 -9 7 -13 15 -11 18 3
3 -3 17 -13 31 -10 14 -33 55 -52 91 -18 36 -41 76 -51 89 -10 13 -16 26 -14
29 3 2 49 -22 103 -54 54 -32 114 -67 133 -77 19 -11 37 -22 40 -26 3 -3 20
-14 38 -23 17 -10 47 -26 64 -35 18 -10 35 -20 38 -23 3 -3 28 -19 55 -35 28
-16 64 -38 80 -48 17 -9 38 -20 48 -23 9 -4 17 -10 17 -15 0 -5 4 -9 9 -9 6 0
85 -45 176 -100 91 -55 168 -100 170 -100 2 0 21 -11 41 -25 33 -23 39 -24 54
-10 9 8 27 36 40 62 13 27 26 50 30 53 7 6 80 130 80 136 0 11 -26 30 -65 50
-22 11 -66 36 -98 57 -31 20 -61 37 -65 37 -5 0 -18 9 -30 20 -12 12 -22 19
-22 16 0 -2 -41 20 -90 50 -50 30 -93 54 -96 54 -3 0 -10 5 -17 10 -21 19
-247 150 -257 150 -6 0 -10 5 -10 10 0 6 -4 10 -9 10 -5 0 -57 29 -116 65 -59
36 -109 65 -111 65 -3 0 -17 8 -32 19 -54 36 -87 55 -94 53 -5 -1 -8 3 -8 8 0
6 -7 10 -15 10 -8 0 -15 5 -15 10 0 6 -4 10 -10 10 -11 0 -233 130 -265 155
-10 8 -22 15 -26 15 -4 0 -36 18 -72 40 -73 44 -124 54 -177 33 -38 -15 -42
-19 450 457 134 129 283 273 331 320 48 47 188 182 310 300 122 118 255 247
294 285 76 73 489 472 606 585 37 36 154 148 260 250 105 102 226 218 267 258
l75 72 -81 83 c-98 100 -224 231 -284 295 -91 96 -63 105 -254 -80z m-3991
-3362 c103 -106 201 -208 219 -226 l31 -33 -149 -144 c-82 -79 -183 -177 -225
-218 -42 -41 -80 -75 -84 -75 -8 0 -63 55 -328 330 l-119 122 178 172 c97 94
198 192 223 218 25 26 51 48 56 48 6 0 95 -87 198 -194z"/>
</g>
</svg>
